<svg width="22" height="22" viewBox="0 0 22 22" fill="none" xmlns="http://www.w3.org/2000/svg">
<g style="mix-blend-mode:hard-light" opacity="0.76" filter="url(#filter0_d_32_49)">
<path d="M13.3527 4.55483C13.8539 3.95654 14.2016 3.13997 14.2016 2.31531C14.2016 2.20212 14.1935 2.08893 14.1693 2C13.3688 2.03234 12.3987 2.5336 11.8165 3.21273C11.3638 3.73017 10.9434 4.55483 10.9434 5.37948C10.9434 5.50884 10.9596 5.63012 10.9757 5.67054C11.0242 5.67863 11.1051 5.6948 11.1859 5.6948C11.9136 5.6948 12.8191 5.2097 13.3527 4.55483ZM13.9267 5.86458C12.714 5.86458 11.7357 6.6003 11.1051 6.6003C10.434 6.6003 9.56086 5.91309 8.50983 5.91309C6.51286 5.91309 4.49164 7.56241 4.49164 10.667C4.49164 12.6074 5.23545 14.6529 6.16521 15.9707C6.95753 17.0864 7.65283 18 8.64727 18C9.64171 18 10.0783 17.3451 11.2991 17.3451C12.5523 17.3451 12.8272 17.9838 13.9267 17.9838C15.0101 17.9838 15.7296 16.9894 16.4088 16.0111C17.1768 14.8873 17.4921 13.7959 17.5083 13.7393C17.4436 13.7231 15.3658 12.8742 15.3658 10.5053C15.3658 8.45174 16.999 7.53007 17.0879 7.4573C16.0207 5.91309 14.3795 5.86458 13.9267 5.86458Z" fill="black"/>
</g>
<defs>
<filter id="filter0_d_32_49" x="0.491638" y="0" width="21.0167" height="24" filterUnits="userSpaceOnUse" color-interpolation-filters="sRGB">
<feFlood flood-opacity="0" result="BackgroundImageFix"/>
<feColorMatrix in="SourceAlpha" type="matrix" values="0 0 0 0 0 0 0 0 0 0 0 0 0 0 0 0 0 0 127 0" result="hardAlpha"/>
<feOffset dy="2"/>
<feGaussianBlur stdDeviation="2"/>
<feColorMatrix type="matrix" values="0 0 0 0 0 0 0 0 0 0 0 0 0 0 0 0 0 0 0.15 0"/>
<feBlend mode="normal" in2="BackgroundImageFix" result="effect1_dropShadow_32_49"/>
<feBlend mode="normal" in="SourceGraphic" in2="effect1_dropShadow_32_49" result="shape"/>
</filter>
</defs>
</svg>
