<svg width="24" height="24" viewBox="0 0 24 24" fill="none" xmlns="http://www.w3.org/2000/svg">
<path fill-rule="evenodd" clip-rule="evenodd" d="M21.6 12C21.6 14.5461 20.5886 16.9879 18.7882 18.7882C16.9879 20.5886 14.5461 21.6 12 21.6C9.45392 21.6 7.01212 20.5886 5.21177 18.7882C3.41142 16.9879 2.39999 14.5461 2.39999 12C2.39999 9.45395 3.41142 7.01215 5.21177 5.2118C7.01212 3.41145 9.45392 2.40002 12 2.40002C14.5461 2.40002 16.9879 3.41145 18.7882 5.2118C20.5886 7.01215 21.6 9.45395 21.6 12ZM8.39999 9.60002C8.39999 9.28176 8.52642 8.97654 8.75147 8.7515C8.97651 8.52645 9.28173 8.40002 9.59999 8.40002C9.91825 8.40002 10.2235 8.52645 10.4485 8.7515C10.6736 8.97654 10.8 9.28176 10.8 9.60002V14.4C10.8 14.7183 10.6736 15.0235 10.4485 15.2486C10.2235 15.4736 9.91825 15.6 9.59999 15.6C9.28173 15.6 8.97651 15.4736 8.75147 15.2486C8.52642 15.0235 8.39999 14.7183 8.39999 14.4V9.60002ZM14.4 8.40002C14.0817 8.40002 13.7765 8.52645 13.5515 8.7515C13.3264 8.97654 13.2 9.28176 13.2 9.60002V14.4C13.2 14.7183 13.3264 15.0235 13.5515 15.2486C13.7765 15.4736 14.0817 15.6 14.4 15.6C14.7183 15.6 15.0235 15.4736 15.2485 15.2486C15.4736 15.0235 15.6 14.7183 15.6 14.4V9.60002C15.6 9.28176 15.4736 8.97654 15.2485 8.7515C15.0235 8.52645 14.7183 8.40002 14.4 8.40002Z" fill="#F95252"/>
</svg>
