<svg width="19" height="20" viewBox="0 0 19 20" fill="none" xmlns="http://www.w3.org/2000/svg">
<g style="mix-blend-mode:hard-light" opacity="0.76" filter="url(#filter0_d_32_27)">
<path fill-rule="evenodd" clip-rule="evenodd" d="M9.49999 17.6C11.5156 17.6 13.4487 16.7993 14.874 15.374C16.2993 13.9487 17.1 12.0156 17.1 9.99999C17.1 7.98435 16.2993 6.05126 14.874 4.62598C13.4487 3.20071 11.5156 2.39999 9.49999 2.39999C7.48435 2.39999 5.55126 3.20071 4.12598 4.62598C2.70071 6.05126 1.89999 7.98435 1.89999 9.99999C1.89999 12.0156 2.70071 13.9487 4.12598 15.374C5.55126 16.7993 7.48435 17.6 9.49999 17.6V17.6ZM10.45 6.19999C10.45 5.94804 10.3499 5.7064 10.1717 5.52824C9.99358 5.35008 9.75195 5.24999 9.49999 5.24999C9.24804 5.24999 9.0064 5.35008 8.82824 5.52824C8.65008 5.7064 8.54999 5.94804 8.54999 6.19999V9.99999C8.55005 10.2519 8.65017 10.4935 8.82834 10.6716L11.5149 13.3592C11.6032 13.4475 11.708 13.5175 11.8233 13.5652C11.9386 13.613 12.0622 13.6376 12.1871 13.6376C12.3119 13.6376 12.4355 13.613 12.5508 13.5652C12.6661 13.5175 12.7709 13.4475 12.8592 13.3592C12.9475 13.2709 13.0175 13.1661 13.0652 13.0508C13.113 12.9355 13.1376 12.8119 13.1376 12.6871C13.1376 12.5622 13.113 12.4386 13.0652 12.3233C13.0175 12.208 12.9475 12.1032 12.8592 12.0149L10.45 9.60669V6.19999Z" fill="black"/>
</g>
<defs>
<filter id="filter0_d_32_27" x="-2.10001" y="0.399994" width="23.2" height="23.2" filterUnits="userSpaceOnUse" color-interpolation-filters="sRGB">
<feFlood flood-opacity="0" result="BackgroundImageFix"/>
<feColorMatrix in="SourceAlpha" type="matrix" values="0 0 0 0 0 0 0 0 0 0 0 0 0 0 0 0 0 0 127 0" result="hardAlpha"/>
<feOffset dy="2"/>
<feGaussianBlur stdDeviation="2"/>
<feColorMatrix type="matrix" values="0 0 0 0 0 0 0 0 0 0 0 0 0 0 0 0 0 0 0.15 0"/>
<feBlend mode="normal" in2="BackgroundImageFix" result="effect1_dropShadow_32_27"/>
<feBlend mode="normal" in="SourceGraphic" in2="effect1_dropShadow_32_27" result="shape"/>
</filter>
</defs>
</svg>
